<?xml version="1.0" encoding="UTF-8"?>
<svg width="27px" height="26px" viewBox="0 0 27 26" version="1.1" xmlns="http://www.w3.org/2000/svg" xmlns:xlink="http://www.w3.org/1999/xlink">
    <!-- Generator: Sketch 49.1 (51147) - http://www.bohemiancoding.com/sketch -->
    <title>Page 1</title>
    <desc>Created with Sketch.</desc>
    <defs>
        <polygon id="path-1" points="0 -5.30612245e-05 27 -5.30612245e-05 27 25.5191061 0 25.5191061"></polygon>
    </defs>
    <g id="Page-1" stroke="none" stroke-width="1" fill="none" fill-rule="evenodd">
        <g id="Artboard-02" transform="translate(-22.000000, -1004.000000)">
            <g id="Page-1" transform="translate(22.000000, 1004.000000)">
                <mask id="mask-2" fill="white">
                    <use xlink:href="#path-1"></use>
                </mask>
                <g id="Clip-2"></g>
                <path d="M3.0375,15.387702 L6.615,25.1706 C6.69222,25.3812531 6.89418,25.5192122 7.12098,25.5192122 L9.7875,25.5192122 L8.11674,17.0792939 C8.0595,16.791702 8.24634,16.5226816 8.53902,16.4653755 C8.83116,16.4086 9.10548,16.5927224 9.16326,16.8803143 L10.90152,25.5192122 L12.96,25.5192122 L12.96,16.9795388 C12.96,16.6861102 13.20192,16.4489265 13.5,16.4489265 C13.79808,16.4489265 14.04,16.6861102 14.04,16.9795388 L14.04,25.5192122 L16.065,25.5192122 L17.83674,16.8803143 C17.8956,16.5927224 18.16938,16.4064776 18.46098,16.4653755 C18.75366,16.5237429 18.94212,16.791702 18.88326,17.0792939 L17.16174,25.5192122 L19.87848,25.5192122 C20.10636,25.5192122 20.30832,25.3812531 20.385,25.1706 L23.9625,15.387702 L3.0375,15.387702 Z M20.46924,7.90925306 C21.0357,7.90925306 21.49902,8.5650898 21.49902,9.38488571 C21.49902,10.2052122 21.0357,10.877498 20.46924,10.877498 C19.90224,10.877498 19.44,10.2057429 19.44,9.38488571 C19.44,8.56455918 19.90278,7.90925306 20.46924,7.90925306 Z M3.51,5.02431429 C3.58236,5.02431429 3.65148,5.03704898 3.7125,5.05721224 C3.77082,5.07790612 3.83616,5.09966122 3.88098,5.14051837 C4.21254,5.4366 4.02138,6.17521224 3.45924,6.78170204 C3.3588,6.89047755 3.24648,6.9790898 3.13848,7.06345714 C3.0375,7.14304898 2.93706,7.20619184 2.835,7.26243673 C2.82852,7.26615102 2.82474,7.27570204 2.81826,7.27941633 C2.80746,7.28472245 2.79504,7.29055918 2.78424,7.29586531 C2.76156,7.30753878 2.73996,7.31815102 2.71674,7.32876327 C2.66544,7.35317143 2.61522,7.37757959 2.565,7.3950898 C2.52072,7.41047755 2.47266,7.41843673 2.43,7.42851837 C2.35224,7.44655918 2.28042,7.46141633 2.21076,7.46141633 C2.19294,7.46141633 2.17728,7.46300816 2.16,7.46141633 C2.10924,7.45823265 2.05308,7.4428449 2.00826,7.42851837 C1.9467,7.40782449 1.88676,7.38766122 1.83924,7.34574286 C1.75662,7.27145714 1.70748,7.16692653 1.6875,7.04700816 C1.67724,6.98704898 1.68264,6.91594694 1.6875,6.84802857 C1.71126,6.50843673 1.90998,6.08288571 2.26152,5.70402857 C2.36358,5.59366122 2.47212,5.50770204 2.58174,5.42227347 C2.68326,5.34268163 2.78316,5.28006939 2.88576,5.22329388 C2.89224,5.21957959 2.89602,5.21002857 2.9025,5.2068449 C3.0645,5.11876327 3.22866,5.0641102 3.375,5.04076327 C3.42036,5.03386531 3.46734,5.02431429 3.51,5.02431429 Z M9.19674,4.77545714 C9.72216,4.76431429 10.33182,5.1288449 10.74924,5.75390612 C11.30544,6.58643673 11.30598,7.55692653 10.7325,7.92570204 C10.15902,8.29553878 9.22968,7.92994694 8.67402,7.09688571 C8.11782,6.26382449 8.13402,5.27794694 8.7075,4.9081102 C8.85114,4.81578367 9.02178,4.77917143 9.19674,4.77545714 Z M19.2375,2.53680408 C19.25478,2.53680408 19.27044,2.53627347 19.28826,2.53680408 C19.3536,2.53945714 19.42002,2.54264082 19.49076,2.55378367 C19.5021,2.55537551 19.51236,2.55166122 19.52424,2.55378367 C19.69164,2.58243673 19.86768,2.64186531 20.0475,2.71933469 C20.14308,2.76072245 20.2392,2.79733469 20.33424,2.85198776 C21.0546,3.26639592 21.4542,3.91586531 21.22902,4.29472245 C21.20256,4.33929388 21.168,4.37749796 21.1275,4.41092653 C21.12156,4.41570204 21.11616,4.4226 21.11076,4.42737551 C21.07404,4.45443673 21.03732,4.4746 20.9925,4.49370204 C20.98062,4.49900816 20.97144,4.50537551 20.95902,4.51015102 C20.85966,4.54623265 20.73384,4.56002857 20.60424,4.56002857 C20.58858,4.56002857 20.57022,4.56055918 20.55402,4.56002857 C20.48706,4.55737551 20.4228,4.55472245 20.35152,4.54357959 C20.34072,4.54198776 20.3283,4.54517143 20.3175,4.54357959 C20.24298,4.52978367 20.15874,4.50006939 20.08098,4.47725306 C19.98378,4.44806939 19.87794,4.42153878 19.7775,4.37749796 C19.68732,4.33770204 19.59768,4.27986531 19.5075,4.22839592 C19.41732,4.17639592 19.33416,4.12068163 19.25424,4.06231429 C19.17486,4.00447755 19.1025,3.94239592 19.035,3.88031429 C18.62838,3.50676327 18.44316,3.08651837 18.61326,2.8021102 C18.66564,2.71349796 18.76176,2.64770204 18.86598,2.60313061 C18.97182,2.5590898 19.09494,2.53680408 19.2375,2.53680408 Z M13.5,-5.30612245e-05 C12.64788,-5.30612245e-05 11.90754,0.464232653 11.5425,1.21027347 C9.00558,1.55782449 6.37524,2.62223265 4.2525,4.12864082 C4.03002,4.01986531 3.77838,3.9630898 3.51,3.9630898 C2.82582,3.9630898 2.06766,4.34406939 1.46826,4.99088571 C0.5832,5.94651837 0.36018,7.07406939 0.86076,7.82647755 C0.29862,8.88982449 0,10.0205592 0,11.1428041 C0,12.9877429 1.04166,14.3264776 2.48076,14.3264776 L24.3,14.3264776 C25.30818,14.3264776 27,13.9131306 27,11.1428041 C27,8.78741633 25.29198,6.2426 22.35924,4.17851837 C22.4235,3.3868449 21.88134,2.51929388 20.87424,1.93986531 C20.34018,1.63264082 19.76292,1.47557959 19.2375,1.47557959 C18.72342,1.47557959 18.27252,1.62998776 17.955,1.92341633 C17.1126,1.62892653 16.26372,1.38749796 15.4575,1.22725306 C15.0957,0.468477551 14.35968,-5.30612245e-05 13.5,-5.30612245e-05 Z" id="Fill-1" fill="#000000" mask="url(#mask-2)"></path>
            </g>
        </g>
    </g>
</svg>