<svg xmlns="http://www.w3.org/2000/svg" viewBox="0 0 158.69 100.5"><defs><style>.cls-1{fill:#fff;}</style></defs><title>joint</title><g id="Layer_2" data-name="Layer 2"><g id="Layer_1-2" data-name="Layer 1"><path d="M127.64,36.61c3.27,4.31,5.82,8.24,7.11,12.11a14.64,14.64,0,0,1-.49,10.44A34.88,34.88,0,0,1,132,63.6c-.2.34-1.68,2.38-.24,2.16,7.51-1.12,13.2-8.38,13.18-15.83,0-6.33-3.62-11.87-8.33-15.88-4-3.4-7.89-7-9.78-12.06-2.69-7.18.07-15.55,4.95-21.16a.5.5,0,0,0-.51-.81,6.51,6.51,0,0,0-1,.7c-6,4.78-10,12.27-9.53,20a25.14,25.14,0,0,0,3.79,11.51A50.19,50.19,0,0,0,127.64,36.61Z"/><path d="M153.66,30.86c-2.25-1.9-4.35-4.22-5-7.19-.71-3.48.73-7.28,3-9.91.21-.24-.11-.55-.36-.38l-.42.32a14.41,14.41,0,0,0-1.82,1.76,12.28,12.28,0,0,0-3,10.77c.67,3,2.5,5.38,4.38,7.75a15.62,15.62,0,0,1,1.77,2.83,10.06,10.06,0,0,1,1.38,5.49,12.89,12.89,0,0,1-1.95,4.94c-.27.44-.61,1.08.24.91a7.82,7.82,0,0,0,2.22-.82A8.73,8.73,0,0,0,158.53,38C158,35.06,155.9,32.76,153.66,30.86Z"/><polygon points="135.85 92.59 1.01 100.21 0 88.5 135.15 72.83 134.46 76.4 135.75 79.8 134.47 83.24 135.27 85.86 134.53 88.94 135.85 92.59"/><polygon points="138.8 88.82 139.29 85.27 138.7 82.62 139.77 79.2 138.6 75.6 139.18 72.56 136.45 72.71 135.86 75.84 137.03 79.44 135.96 82.86 136.55 85.5 136.06 89.06 137.16 92.48 139.87 92.16 138.8 88.82"/><polygon points="142.84 88.47 143.33 84.92 142.74 82.27 143.81 78.85 142.64 75.25 143.22 72.21 140.49 72.36 139.9 75.49 141.07 79.09 140 82.51 140.59 85.15 140.1 88.71 141.19 92.13 143.91 91.81 142.84 88.47"/><polygon points="146.88 88.13 147.37 84.57 146.78 81.92 147.85 78.5 146.68 74.91 147.26 71.86 144.53 72.02 143.94 75.14 145.12 78.74 144.04 82.16 144.63 84.81 144.14 88.36 145.24 91.78 147.95 91.46 146.88 88.13"/><rect class="cls-1" x="28.48" y="83.73" width="1.01" height="16.75" transform="translate(-7.81 2.83) rotate(-4.93)"/></g></g></svg>