<?xml version="1.0" encoding="UTF-8"?>
<svg width="21px" height="21px" viewBox="0 0 21 21" version="1.1" xmlns="http://www.w3.org/2000/svg" xmlns:xlink="http://www.w3.org/1999/xlink">
    <!-- Generator: Sketch 49.1 (51147) - http://www.bohemiancoding.com/sketch -->
    <title>Search</title>
    <desc>Created with Sketch.</desc>
    <defs></defs>
    <g id="Page-1" stroke="none" stroke-width="1" fill="none" fill-rule="evenodd">
        <g id="Artboard-01" transform="translate(-30.000000, -361.000000)" fill="#8E8E93">
            <g id="iPhone/Search-Bars/Search-Bar" transform="translate(16.000000, 348.000000)">
                <path d="M34.614642,31.8610836 L28.865142,26.1093336 C29.895748,24.703689 30.4478397,23.0042983 30.440142,21.2613336 C30.4204774,16.7116172 26.740575,13.0263617 22.190892,13.0000836 C20.0136122,12.9902326 17.9228241,13.8515684 16.384296,15.3922097 C14.8457679,16.932851 13.9873026,19.0248194 14.000142,21.2020836 C14.0198065,25.7522142 17.7000448,29.4378055 22.250142,29.4640836 C24.0002073,29.4716686 25.7058067,28.9131327 27.112392,27.8718336 L27.118392,27.8673336 L32.862642,33.6145836 C33.1732153,33.9404038 33.6359906,34.0722882 34.0716643,33.9591377 C34.507338,33.8459871 34.847453,33.505581 34.9602306,33.0698106 C35.0730082,32.6340403 34.9407279,32.1713779 34.614642,31.8610836 L34.614642,31.8610836 Z M22.244142,27.8170836 C18.6042631,27.7961451 15.6601203,24.8479876 15.644142,21.2080836 C15.6343179,19.4664978 16.3211466,17.7932592 17.5517373,16.5608372 C18.782328,15.3284152 20.4545435,14.6390992 22.196142,14.6463336 C25.8360209,14.6672721 28.7801636,17.6154295 28.796142,21.2553336 C28.8059661,22.9969193 28.1191374,24.670158 26.8885466,25.90258 C25.6579559,27.1350019 23.9857404,27.824318 22.244142,27.8170836 Z" id="Search"></path>
            </g>
        </g>
    </g>
</svg>