<?xml version="1.0" encoding="UTF-8"?>
<svg width="33px" height="27px" viewBox="0 0 33 27" version="1.1" xmlns="http://www.w3.org/2000/svg" xmlns:xlink="http://www.w3.org/1999/xlink">
    <!-- Generator: Sketch 49.1 (51147) - http://www.bohemiancoding.com/sketch -->
    <title>Group 4</title>
    <desc>Created with Sketch.</desc>
    <defs>
        <polygon id="path-1" points="0.0462628711 0.126481283 7.18369074 0.126481283 7.18369074 20.0333616 0.0462628711 20.0333616"></polygon>
        <polygon id="path-3" points="0 0.00760906744 27.3159745 0.00760906744 27.3159745 5.34224599 0 5.34224599"></polygon>
        <polygon id="path-5" points="0 26.8735187 36.9791787 26.8735187 36.9791787 0.144385027 0 0.144385027"></polygon>
    </defs>
    <g id="Page-1" stroke="none" stroke-width="1" fill="none" fill-rule="evenodd">
        <g id="Artboard-02" transform="translate(-17.000000, -893.000000)">
            <g id="Group-4" transform="translate(17.000000, 893.000000)">
                <g id="Group-3" transform="translate(25.745247, 0.017904)">
                    <mask id="mask-2" fill="white">
                        <use xlink:href="#path-1"></use>
                    </mask>
                    <g id="Clip-2"></g>
                    <path d="M2.07879506,11.2065882 C3.04459354,12.5118289 3.79612966,13.6985294 4.17428935,14.8709358 C4.51910684,15.9396738 4.4455289,16.9910856 4.03149468,18.0293583 C3.84550989,18.4957219 3.61520951,18.9412941 3.36633878,19.3756043 C3.30781407,19.4776845 2.87084829,20.0939198 3.29810684,20.0285134 C5.5121981,19.690508 7.19056312,17.4906578 7.18366958,15.2388289 C7.17818289,13.3209626 6.11629696,11.6452299 4.72830456,10.4312406 C3.55260494,9.40350802 2.40124373,8.30849198 1.84385209,6.78248663 C1.04940722,4.60747059 1.86439202,2.07596791 3.30176464,0.37742246 C3.39841483,0.266679144 3.29065057,0.0890855615 3.151373,0.133411765 C3.05219049,0.186112299 2.94738061,0.276930481 2.86676844,0.343058824 C1.1001943,1.79152941 -0.080569962,4.05750802 0.057160076,6.40751872 C0.129893916,7.65211765 0.54688251,8.82813369 1.17306882,9.88907487 C1.44318289,10.3474973 1.76295856,10.7797861 2.07879506,11.2065882" id="Fill-1" fill="#000000" mask="url(#mask-2)"></path>
                </g>
                <g id="Group-9" transform="translate(0.000000, 21.531273)">
                    <mask id="mask-4" fill="white">
                        <use xlink:href="#path-3"></use>
                    </mask>
                    <g id="Clip-8"></g>
                    <path d="M-1.40684411e-05,1.49520802 L-1.40684411e-05,3.85445936 C-1.40684411e-05,4.67601016 0.226769202,5.34234706 1.02754487,5.34234706 L27.3159745,5.34234706 L27.3159745,0.00760906744 L1.02754487,0.00760909091 C0.226769202,0.00746470588 -1.40684411e-05,0.673657219 -1.40684411e-05,1.49520802" id="Fill-7" fill="#000000" mask="url(#mask-4)"></path>
                </g>
                <mask id="mask-6" fill="white">
                    <use xlink:href="#path-5"></use>
                </mask>
                <g id="Clip-13"></g>
                <polygon id="Fill-12" fill="#000000" mask="url(#mask-6)" points="27.8417262 26.8733743 29.4406046 26.8733743 29.4406046 21.5387807 27.8417262 21.5387807"></polygon>
            </g>
        </g>
    </g>
</svg>