<?xml version="1.0" encoding="UTF-8"?>
<svg width="37px" height="7px" viewBox="0 0 37 7" version="1.1" xmlns="http://www.w3.org/2000/svg" xmlns:xlink="http://www.w3.org/1999/xlink">
    <!-- Generator: Sketch 49.1 (51147) - http://www.bohemiancoding.com/sketch -->
    <title>Page 1</title>
    <desc>Created with Sketch.</desc>
    <defs>
        <polygon id="path-1" points="0.0369534884 0.0700227273 4.00269767 0.0700227273 4.00269767 24.4180934 0.0369534884 24.4180934"></polygon>
        <polygon id="path-3" points="0 36.9299773 6.99316279 36.9299773 6.99316279 0.0805785124 0 0.0805785124"></polygon>
    </defs>
    <g id="Page-1" stroke="none" stroke-width="1" fill="none" fill-rule="evenodd">
        <g id="Artboard-02" transform="translate(-17.000000, -962.000000)">
            <g id="Page-1" transform="translate(35.500000, 965.500000) rotate(90.000000) translate(-35.500000, -965.500000) translate(32.000000, 947.000000)">
                <path d="M1.62595349,36.9299531 C1.25609302,36.9299531 0.953546512,36.6304428 0.953546512,36.264294 L0.953546512,4.37015145 C0.953546512,4.00408326 1.25609302,3.70457293 1.62595349,3.70457293 L6.32075581,3.70457293 C6.69053488,3.70457293 6.99316279,4.00408326 6.99316279,4.37015145 L6.99316279,36.264294 C6.99316279,36.6304428 6.69053488,36.9299531 6.32075581,36.9299531 L1.62595349,36.9299531 Z" id="Fill-1" fill="#030404"></path>
                <g id="Group-5" transform="translate(1.953488, 0.010556)">
                    <mask id="mask-2" fill="white">
                        <use xlink:href="#path-1"></use>
                    </mask>
                    <g id="Clip-4"></g>
                    <path d="M3.54973256,24.4180934 L0.49,24.4180934 C0.240848837,24.4180934 0.0369534884,24.2163248 0.0369534884,23.969674 L0.0369534884,0.518426033 C0.0369534884,0.271775207 0.240848837,0.0700066116 0.49,0.0700066116 L3.54973256,0.0700066116 C3.79888372,0.0700066116 4.00269767,0.271775207 4.00269767,0.518426033 L4.00269767,23.969674 C4.00269767,24.2163248 3.79888372,24.4180934 3.54973256,24.4180934" id="Fill-3" fill="#030404" mask="url(#mask-2)"></path>
                </g>
                <mask id="mask-4" fill="white">
                    <use xlink:href="#path-3"></use>
                </mask>
                <g id="Clip-7"></g>
                <polygon id="Fill-6" fill="#FEFEFE" mask="url(#mask-4)" points="1.55115116 11.0480393 6.40825581 11.0480393 6.40825581 6.23967769 1.55115116 6.23967769"></polygon>
                <polygon id="Fill-8" fill="#030404" mask="url(#mask-4)" points="3.5157907 11.4220041 4.44353488 11.4220041 4.44353488 5.86555165 3.5157907 5.86555165"></polygon>
                <path d="M1.22793837,19.0980019 C0.549752326,19.0980019 8.13953488e-06,18.5537746 8.13953488e-06,17.8823944 L8.13953488e-06,14.9109006 C8.13953488e-06,14.239601 0.549752326,13.6952932 1.22793837,13.6952932 C1.90612442,13.6952932 2.45578721,14.239601 2.45578721,14.9109006 L2.45578721,17.8823944 C2.45578721,18.5537746 1.90612442,19.0980019 1.22793837,19.0980019" id="Fill-9" fill="#030404" mask="url(#mask-4)"></path>
            </g>
        </g>
    </g>
</svg>