<svg xmlns="http://www.w3.org/2000/svg" viewBox="0 0 309.76 545.53"><defs><style>.cls-1{fill:#231f20;}.cls-2{fill:#fff;}</style></defs><title>vaporizer</title><g id="Layer_2" data-name="Layer 2"><g id="Layer_1-2" data-name="Layer 1"><path class="cls-1" d="M92,164.49H77.47a33.32,33.32,0,0,1-33.22-33.22V60.79A18.83,18.83,0,0,0,63,42H106.4a18.83,18.83,0,0,0,18.78,18.77v70.48A33.32,33.32,0,0,1,92,164.49Z"/><rect class="cls-1" x="17.43" y="108.37" width="292.33" height="437.16" rx="33.22" ry="33.22"/><path class="cls-2" d="M276.55,521.21H50.65a9,9,0,0,1-8.9-8.9V141.59a9,9,0,0,1,8.9-8.9h225.9a9,9,0,0,1,8.89,8.9V512.31A9,9,0,0,1,276.55,521.21ZM50.65,137.69a4,4,0,0,0-3.9,3.9V512.31a4,4,0,0,0,3.9,3.9h225.9a4,4,0,0,0,3.89-3.9V141.59a4,4,0,0,0-3.89-3.9Z"/><path class="cls-1" d="M16.09,266.61h0A16.15,16.15,0,0,1,0,250.51V198.22a16.15,16.15,0,0,1,16.09-16.1h0a16.15,16.15,0,0,1,16.09,16.1v52.29A16.15,16.15,0,0,1,16.09,266.61Z"/><path class="cls-1" d="M16.09,369.19h0A16.14,16.14,0,0,1,0,353.1V300.8a16.14,16.14,0,0,1,16.09-16.09h0A16.14,16.14,0,0,1,32.18,300.8v52.3A16.14,16.14,0,0,1,16.09,369.19Z"/><rect class="cls-1" x="63.03" width="43.38" height="42.02"/><path class="cls-1" d="M105.84,0H63.58A6.59,6.59,0,0,0,57,6.59h0a6.6,6.6,0,0,0,6.59,6.6h42.26a6.6,6.6,0,0,0,6.6-6.6h0A6.59,6.59,0,0,0,105.84,0Z"/></g></g></svg>